HIERARCHY
ROOT Hips
{
	OFFSET 0.000000 0.000000 0.000000
	CHANNELS 6 Xposition Yposition Zposition Xrotation Yrotation Zrotation
	JOINT LeftUpLeg_virtual
	{
		OFFSET 0.000000 0.000000 0.000000
		CHANNELS 3 Xrotation Yrotation Zrotation
		JOINT LeftUpLeg
		{
			OFFSET 11.394100 -6.187798 -0.413800
			CHANNELS 3 Xrotation Yrotation Zrotation
			JOINT LeftLeg
			{
				OFFSET 0.430247 -32.302673 3.732800
				CHANNELS 3 Xrotation Yrotation Zrotation
				JOINT LeftFoot
				{
					OFFSET -0.430247 -48.264931 -6.423300
					CHANNELS 3 Xrotation Yrotation Zrotation
					JOINT LeftToeBase
					{
						OFFSET 4.230900 -16.068199 23.438400
						CHANNELS 3 Xrotation Yrotation Zrotation
						JOINT LeftToe_End
						{
							OFFSET 4.510700 0.695400 19.974600
							CHANNELS 3 Xrotation Yrotation Zrotation
							End Site
							{
								OFFSET 0 0 0
							}
						}
					}
				}
			}
		}
	}
	JOINT RightUpLeg_virtual
	{
		OFFSET 0.000000 0.000000 0.000000
		CHANNELS 3 Xrotation Yrotation Zrotation
		JOINT RightUpLeg
		{
			OFFSET -11.333700 -6.187798 -0.413800
			CHANNELS 3 Xrotation Yrotation Zrotation
			JOINT RightLeg
			{
				OFFSET -0.430392 -32.302628 3.733000
				CHANNELS 3 Xrotation Yrotation Zrotation
				JOINT RightFoot
				{
					OFFSET 0.430392 -48.264973 -6.423500
					CHANNELS 3 Xrotation Yrotation Zrotation
					JOINT RightToeBase
					{
						OFFSET -4.230900 -16.068199 23.438400
						CHANNELS 3 Xrotation Yrotation Zrotation
						JOINT RightToe_End
						{
							OFFSET -4.510700 0.695400 19.974600
							CHANNELS 3 Xrotation Yrotation Zrotation
							End Site
							{
								OFFSET 0 0 0
							}
						}
					}
				}
			}
		}
	}
	JOINT Spine_virtual
	{
		OFFSET 0.000000 0.000000 0.000000
		CHANNELS 3 Xrotation Yrotation Zrotation
		JOINT Spine
		{
			OFFSET -0.002400 12.777504 0.315300
			CHANNELS 3 Xrotation Yrotation Zrotation
			JOINT Spine1
			{
				OFFSET -0.002067 5.816869 0.032633
				CHANNELS 3 Xrotation Yrotation Zrotation
				JOINT Spine1_split
				{
					OFFSET -0.002067 5.816869 0.032633
					CHANNELS 3 Xrotation Yrotation Zrotation
					JOINT Spine2
					{
						OFFSET -0.002067 5.816869 0.032633
						CHANNELS 3 Xrotation Yrotation Zrotation
						JOINT Neck_virtual
						{
							OFFSET 0.000000 0.000000 0.000000
							CHANNELS 3 Xrotation Yrotation Zrotation
							JOINT Neck
							{
								OFFSET -0.003700 21.199493 -0.826900
								CHANNELS 3 Xrotation Yrotation Zrotation
								JOINT Head
								{
									OFFSET 0.000000 20.442200 4.834800
									CHANNELS 3 Xrotation Yrotation Zrotation
									JOINT HeadTop_End
									{
										OFFSET 0.000000 34.668396 4.968400
										CHANNELS 3 Xrotation Yrotation Zrotation
										End Site
										{
											OFFSET 0 0 0
										}
									}
								}
							}
						}
						JOINT LeftShoulder_virtual
						{
							OFFSET 0.000000 0.000000 0.000000
							CHANNELS 3 Xrotation Yrotation Zrotation
							JOINT LeftShoulder
							{
								OFFSET 3.288150 8.794197 -1.372250
								CHANNELS 3 Xrotation Yrotation Zrotation
								JOINT LeftShoulder_split
								{
									OFFSET 3.288150 8.794197 -1.372250
									CHANNELS 3 Xrotation Yrotation Zrotation
									JOINT LeftArm
									{
										OFFSET 11.953299 -2.279007 -0.146200
										CHANNELS 3 Xrotation Yrotation Zrotation
										JOINT LeftForeArm
										{
											OFFSET 18.448900 0.000000 0.000000
											CHANNELS 3 Xrotation Yrotation Zrotation
											JOINT LeftHand
											{
												OFFSET 29.527798 0.000000 0.000000
												CHANNELS 3 Xrotation Yrotation Zrotation
												End Site
												{
													OFFSET 0 0 0
												}
											}
										}
									}
								}
							}
						}
						JOINT RightShoulder_virtual
						{
							OFFSET 0.000000 0.000000 0.000000
							CHANNELS 3 Xrotation Yrotation Zrotation
							JOINT RightShoulder
							{
								OFFSET -3.249400 8.794197 -1.372250
								CHANNELS 3 Xrotation Yrotation Zrotation
								JOINT RightShoulder_split
								{
									OFFSET -3.249400 8.794197 -1.372250
									CHANNELS 3 Xrotation Yrotation Zrotation
									JOINT RightArm
									{
										OFFSET -11.953299 -2.279007 -0.146200
										CHANNELS 3 Xrotation Yrotation Zrotation
										JOINT RightForeArm
										{
											OFFSET -18.448900 0.000000 0.000000
											CHANNELS 3 Xrotation Yrotation Zrotation
											JOINT RightHand
											{
												OFFSET -29.527802 0.000000 0.000000
												CHANNELS 3 Xrotation Yrotation Zrotation
												End Site
												{
													OFFSET 0 0 0
												}
											}
										}
									}
								}
							}
						}
					}
				}
			}
		}
	}
}
MOTION
Frames: 9
Frame Time: 0.03333333
3.771211 88.386673 0.766544 0.000000 0.000000 0.000000 7.837220 -11.798032 1.742105 -54.196441 5.068455 18.477624 39.053283 6.455877 6.513093 8.832471 -0.732469 -16.424201 0.754121 0.946066 -0.715804 0.000000 0.000000 0.000000 7.259735 -11.792473 1.972253 -32.502736 -2.198894 -28.680203 32.134032 -2.245719 -2.543023 -4.865051 -4.285634 29.564815 -0.020060 0.798839 -1.126499 0.000000 0.000000 0.000000 8.633777 -10.269971 1.413163 8.042303 2.848842 -2.034035 6.271998 1.634029 -1.222646 0.459524 1.974940 0.373719 0.000000 0.000000 0.000000 6.416742 1.263357 -0.526786 -1.850941 -0.049731 -3.300328 -10.812469 -3.521755 4.406934 0.000000 0.000000 0.000000 6.054823 1.688560 -1.028266 5.314677 -36.237152 3.773688 -2.325023 -3.544286 -1.387199 -77.520407 -33.759340 -28.147754 -0.131212 -23.941572 1.520348 0.000000 0.000000 0.000000 5.467791 1.493289 -0.678896 5.381050 28.398911 -19.651448 2.407539 -0.482321 1.556202 -38.249630 30.317017 12.479714 0.826069 39.671795 -0.518683 0.000000 0.000000 0.000000 
3.975082 88.139778 0.907478 0.000000 0.000000 0.000000 8.129006 -11.476619 1.525909 -55.251671 4.996010 18.616382 39.888636 6.324767 6.394520 8.366304 -1.041839 -16.188655 0.799687 0.928842 -0.703308 0.000000 0.000000 0.000000 7.488022 -11.538556 1.748018 -32.798988 -2.236152 -28.710075 32.504365 -2.233033 -2.596942 -5.044740 -4.597791 29.580282 0.176623 0.844306 -1.175268 0.000000 0.000000 0.000000 9.090288 -10.275736 1.221125 8.086164 2.632301 -2.081318 6.218893 1.362461 -1.254307 0.539573 2.203045 0.315825 0.000000 0.000000 0.000000 6.279105 1.017220 -0.571188 -2.591151 -0.324504 -2.623608 -11.115610 -3.700960 4.868077 0.000000 0.000000 0.000000 5.917397 1.505422 -1.125340 5.198629 -36.557747 3.987756 -0.890574 -3.798338 -0.835060 -76.763649 -33.847996 -26.848898 -0.191431 -23.654023 1.648156 0.000000 0.000000 0.000000 5.552026 1.386896 -0.766540 5.034451 28.746354 -19.534648 2.758644 -1.196006 1.532532 -40.748212 28.325676 13.858531 0.751862 41.135347 -0.338454 0.000000 0.000000 0.000000 
4.138265 87.858864 1.063770 0.000000 0.000000 0.000000 8.332777 -11.126938 1.261632 -56.130235 4.969815 18.786007 40.593057 6.216028 6.352643 7.801203 -1.230609 -15.909710 0.797297 0.916154 -0.713876 0.000000 0.000000 0.000000 7.676163 -11.167649 1.459276 -32.912889 -2.270124 -28.720652 32.753872 -2.299951 -2.664008 -5.335237 -4.957283 29.488310 0.420258 0.862737 -1.130748 0.000000 0.000000 0.000000 9.462540 -10.282487 1.008629 8.150612 2.447228 -2.003421 6.235597 1.180757 -1.243558 0.737634 2.095475 0.265233 0.000000 0.000000 0.000000 6.145719 0.849045 -0.614688 -3.560635 -0.701768 -1.759868 -11.376758 -3.753315 5.252208 0.000000 0.000000 0.000000 5.956017 1.326200 -1.201049 4.959667 -36.535064 3.857910 0.090605 -3.768410 -0.400287 -76.160277 -34.106133 -26.456499 -0.500460 -22.760050 1.481789 0.000000 0.000000 0.000000 5.745166 1.382329 -0.802747 4.505551 28.628320 -18.805007 2.807343 -1.449714 1.259173 -42.782823 27.285569 15.525959 0.730876 41.243486 -0.268521 0.000000 0.000000 0.000000 
4.274657 87.574234 1.205772 0.000000 0.000000 0.000000 8.408476 -10.874155 0.975592 -56.743439 4.985385 18.994664 41.136211 6.152016 6.375258 7.241386 -1.303408 -15.622458 0.654388 0.913197 -0.717602 0.000000 0.000000 0.000000 7.815167 -10.813395 1.156739 -32.929035 -2.306557 -28.735723 32.862622 -2.401507 -2.737314 -5.611246 -5.257431 29.374916 0.651004 0.854433 -1.009008 0.000000 0.000000 0.000000 9.666666 -10.312173 0.814815 8.220011 2.336381 -1.835294 6.308356 1.135028 -1.202894 0.932587 1.991780 0.166193 0.000000 0.000000 0.000000 6.043065 0.804947 -0.658206 -4.651007 -1.127104 -1.001848 -11.528701 -3.686619 5.522592 0.000000 0.000000 0.000000 6.139058 1.199776 -1.239613 4.690307 -36.241687 3.669608 0.497671 -3.375682 -0.297118 -76.001461 -34.896188 -26.774055 -0.913883 -21.667150 1.126839 0.000000 0.000000 0.000000 6.018147 1.462373 -0.793918 3.982433 28.212720 -17.904690 2.533519 -1.337845 0.767120 -43.654345 27.614361 16.845260 0.862402 39.857975 -0.403775 0.000000 0.000000 0.000000 
4.408826 87.336258 1.314678 0.000000 0.000000 0.000000 8.370603 -10.752984 0.713722 -57.076312 5.035891 19.213711 41.515710 6.101198 6.435672 6.775086 -1.327541 -15.394150 0.449627 0.919534 -0.703001 0.000000 0.000000 0.000000 7.853044 -10.607564 0.888328 -32.864524 -2.351112 -28.763194 32.747308 -2.500653 -2.810682 -5.813439 -5.417131 29.344777 0.817664 0.830694 -0.860314 0.000000 0.000000 0.000000 9.674519 -10.376476 0.672598 8.274983 2.308367 -1.639548 6.398680 1.229766 -1.169422 1.022022 1.968210 -0.054908 0.000000 0.000000 0.000000 5.983473 0.876535 -0.701153 -5.725844 -1.486655 -0.609814 -11.514394 -3.508723 5.640377 0.000000 0.000000 0.000000 6.373994 1.171581 -1.231654 4.446401 -35.841821 3.580193 0.709937 -2.890199 -0.491305 -75.962782 -35.970952 -27.338126 -1.301980 -21.233270 0.755496 0.000000 0.000000 0.000000 6.275966 1.580298 -0.784704 3.600198 27.622518 -17.188021 2.116694 -1.119356 0.278055 -43.285125 28.897762 17.698719 1.095113 37.933091 -0.699487 0.000000 0.000000 0.000000 
4.549867 87.202888 1.349640 0.000000 0.000000 0.000000 8.250471 -10.803827 0.513697 -57.158981 5.090707 19.394110 41.700975 6.042906 6.512895 6.459018 -1.374793 -15.255818 0.331776 0.933583 -0.671433 0.000000 0.000000 0.000000 7.803268 -10.561665 0.689961 -32.699394 -2.417053 -28.775635 32.388764 -2.581217 -2.886681 -5.938877 -5.441583 29.408124 0.878243 0.802689 -0.740767 0.000000 0.000000 0.000000 9.544072 -10.450058 0.596795 8.280092 2.337969 -1.478484 6.459074 1.406803 -1.166767 0.748818 2.091180 -0.281145 0.000000 0.000000 0.000000 5.953709 1.037409 -0.756569 -6.619338 -1.677302 -0.682446 -11.254573 -3.275719 5.608476 0.000000 0.000000 0.000000 6.570326 1.236325 -1.206561 4.219723 -35.520368 3.549036 0.814448 -2.542710 -0.657910 -75.662097 -36.760546 -27.577333 -1.459665 -21.896292 0.534351 0.000000 0.000000 0.000000 6.464844 1.680062 -0.794025 3.391962 26.906654 -16.862115 1.450717 -1.093120 -0.204375 -41.875596 30.154643 18.018148 1.424696 36.622491 -1.119607 0.000000 0.000000 0.000000 
4.679328 87.218132 1.352158 0.000000 0.000000 0.000000 8.107195 -10.989712 0.392355 -57.049070 5.154056 19.498542 41.712013 5.974361 6.584078 6.278502 -1.476529 -15.213475 0.405445 0.953620 -0.630518 0.000000 0.000000 0.000000 7.709155 -10.658852 0.572862 -32.379185 -2.514106 -28.722704 31.832718 -2.672059 -2.958687 -5.993026 -5.414945 29.482317 0.837369 0.780813 -0.683298 0.000000 0.000000 0.000000 9.353448 -10.533769 0.561623 8.208687 2.401324 -1.392333 6.478848 1.597570 -1.207641 0.368525 2.238576 -0.460983 0.000000 0.000000 0.000000 5.928222 1.205929 -0.841270 -7.200239 -1.649258 -1.161253 -10.762633 -3.113365 5.482612 0.000000 0.000000 0.000000 6.686122 1.347312 -1.210011 4.067703 -35.518234 3.593981 1.040203 -2.258712 -0.549089 -75.283301 -37.210505 -27.536015 -1.339101 -23.125245 0.505557 0.000000 0.000000 0.000000 6.585141 1.737822 -0.832285 3.251697 26.127953 -16.899071 0.857193 -1.292220 -0.571064 -40.174835 30.738331 18.174899 1.742339 36.605777 -1.547507 0.000000 0.000000 0.000000 
4.791028 87.368988 1.307327 0.000000 0.000000 0.000000 7.977803 -11.285394 0.350534 -56.765549 5.252395 19.520607 41.545674 5.913658 6.651470 6.196687 -1.627318 -15.285081 0.634949 0.977619 -0.571103 0.000000 0.000000 0.000000 7.560049 -10.878491 0.518921 -31.942039 -2.598856 -28.574289 31.197446 -2.797240 -3.016839 -5.986174 -5.412509 29.494089 0.748312 0.761588 -0.688273 0.000000 0.000000 0.000000 9.168177 -10.656041 0.534524 8.109443 2.467456 -1.386519 6.487352 1.745721 -1.290680 0.280209 2.291555 -0.605562 0.000000 0.000000 0.000000 5.894496 1.332567 -0.950283 -7.434751 -1.426465 -1.824785 -10.141817 -2.998795 5.250345 0.000000 0.000000 0.000000 6.747908 1.450219 -1.257305 3.967361 -36.008477 3.566598 1.189073 -2.145835 -0.223014 -74.623607 -36.991020 -26.898922 -1.070304 -23.883008 0.648411 0.000000 0.000000 0.000000 6.646050 1.729128 -0.897458 3.139261 25.355286 -17.151937 0.324071 -1.575494 -0.802534 -39.225056 30.505770 18.935115 1.978003 37.391112 -1.882876 0.000000 0.000000 0.000000 
4.839501 87.612549 1.213383 0.000000 0.000000 0.000000 7.869364 -11.704239 0.387529 -56.336797 5.398090 19.519574 41.242810 5.917507 6.703639 6.180374 -1.787398 -15.458876 0.883995 0.996581 -0.476574 0.000000 0.000000 0.000000 7.405188 -11.133910 0.520367 -31.498206 -2.614431 -28.342201 30.649207 -2.917529 -3.065918 -5.910419 -5.467877 29.414387 0.638261 0.734763 -0.726467 0.000000 0.000000 0.000000 9.026468 -10.874060 0.526912 8.011123 2.534109 -1.437333 6.510890 1.820533 -1.384383 0.396039 2.015245 -0.627658 0.000000 0.000000 0.000000 5.888841 1.403388 -1.071428 -7.361808 -1.135155 -2.352083 -9.621156 -2.845279 4.856286 0.000000 0.000000 0.000000 6.772780 1.520558 -1.342555 3.940197 -36.964530 3.492799 1.019116 -2.066909 0.198712 -73.982902 -36.127254 -25.653562 -0.824896 -23.665243 0.807154 0.000000 0.000000 0.000000 6.682817 1.692395 -0.965346 3.007922 24.606933 -17.526499 -0.218737 -1.814379 -0.827616 -39.640475 30.008259 20.549056 2.015451 38.147276 -2.020981 0.000000 0.000000 0.000000 
